# xmcd
#
# Track frame offsets: 
#        150
#        12422
#        21473
#        33056
#        45760
#        59271
#        76170
#        89098
#        100036
#        111472
#
# Disc length: 1668 seconds
#
# Revision: 0
# Processed by: cddbd v1.5.2PL0 Copyright (c) Steve Scherf et al.
# Submitted via: ExactAudioCopyFreeDBPlugin 1.0
#
DISCID=7206820a
DTITLE=Patsy Cline - Americam Music Legends
DYEAR=2008
DGENRE=Country
TTITLE0=Crazy
TTITLE1=Walkin' After Midnight
TTITLE2=Sweet Dreams (of You)
TTITLE3=I Fall to Pieces
TTITLE4=She's Got You
TTITLE5=Fadded Love
TTITLE6=You're Stronger than Me
TTITLE7=Leavin' on Your Mind
TTITLE8=Just Out of Reach (Of My Two Open Arms) 
TTITLE9=You Belong to Me
EXTD=
EXTT0=
EXTT1=
EXTT2=
EXTT3=
EXTT4=
EXTT5=
EXTT6=
EXTT7=
EXTT8=
EXTT9=
PLAYORDER=
